<?xml version="1.0" encoding="UTF-8"?>
<svg version="1.1" xmlns="http://www.w3.org/2000/svg" width="512" height="512">
<path d="M0 0 C13.28365548 12.26582267 26.0114687 25.1094874 38.79296875 37.89306641 C42.15464557 41.25484626 45.52324067 44.60960558 48.89347649 47.96280193 C51.50650791 50.5647403 54.11500764 53.17118499 56.72223282 55.7789402 C57.96377284 57.01930314 59.20692792 58.25805174 60.45174789 59.49512291 C62.1786645 61.21226153 63.89915454 62.93559525 65.61816406 64.66064453 C66.12817963 65.16504059 66.63819519 65.66943665 67.16366577 66.18911743 C71.12541104 70.18639691 72.90652956 72.41036952 72.93505859 78.08764648 C71.97162732 84.91810928 68.65318593 90.90925111 65.60302734 97.01342773 C65.28940247 97.65065765 64.97577759 98.28788757 64.65264893 98.94442749 C53.40337631 121.79475802 39.71085233 142.07790567 22.91552734 161.20092773 C22.04798828 162.1922168 21.18044922 163.18350586 20.28662109 164.20483398 C16.06492275 168.94215961 11.79927676 173.40858355 6.93505859 177.48608398 C5.54617663 178.66542476 4.1904447 179.88457709 2.86474609 181.13452148 C-16.87224758 199.71252071 -51.57600582 226.00556048 -79.08056641 229.59155273 C-85.61949558 228.74123685 -90.16982238 223.40198552 -94.62133789 218.90698242 C-95.55675919 217.97440865 -95.55675919 217.97440865 -96.51107788 217.022995 C-98.55998439 214.97777603 -100.60162763 212.92547354 -102.64306641 210.87280273 C-104.07467219 209.44000341 -105.50664941 208.00757514 -106.9389801 206.57550049 C-109.93695803 203.57596093 -112.93155545 200.57310082 -115.92358398 197.56762695 C-119.74245908 193.73180118 -123.56784428 189.90255154 -127.39558315 186.07557297 C-130.35313312 183.11774982 -133.30805985 180.15731761 -136.26213264 177.19602203 C-137.670828 175.78416311 -139.08011341 174.37289265 -140.49001884 172.96224213 C-154.12840054 159.30876136 -154.12840054 159.30876136 -160.08447266 152.20092773 C-160.99522831 151.16660693 -161.90795023 150.13401375 -162.82275391 149.10327148 C-192.1076415 115.37454662 -207.85623185 72.59373912 -204.81103516 27.75952148 C-203.35706413 9.9554118 -199.16929887 -7.39615941 -192.08447266 -23.79907227 C-191.75447266 -24.62922852 -191.42447266 -25.45938477 -191.08447266 -26.31469727 C-187.30808949 -34.04448157 -178.39969601 -36.87666399 -170.77050781 -39.63598633 C-109.14311999 -60.73050946 -47.13817753 -43.01438004 0 0 Z M-123.08447266 -10.79907227 C-124.5287812 -7.91045517 -124.46135771 -6.00259525 -124.08447266 -2.79907227 C-121.99464257 0.20703322 -120.25165054 1.90527231 -116.64892578 2.81787109 C-113.65072785 3.23067024 -110.66325572 3.51578088 -107.64697266 3.76342773 C-78.02683732 6.86505885 -54.9495647 20.0268772 -33.25756836 39.87231445 C-32.34430786 40.68853271 -32.34430786 40.68853271 -31.41259766 41.52124023 C-30.8637793 42.01897949 -30.31496094 42.51671875 -29.74951172 43.02954102 C-27.90917971 44.50289777 -27.90917971 44.50289777 -24.39697266 44.82592773 C-21.08327613 44.41465652 -21.08327613 44.41465652 -18.64697266 42.63842773 C-16.45604437 39.22057961 -16.59844509 37.21484503 -17.08447266 33.20092773 C-18.9326269 30.74176342 -20.54238086 28.9323253 -22.77197266 26.88842773 C-23.35849609 26.32937744 -23.94501953 25.77032715 -24.54931641 25.19433594 C-48.96234562 2.32994306 -81.90112203 -14.79960647 -116.05712891 -14.06079102 C-118.95708308 -13.68642314 -120.86098481 -12.66393304 -123.08447266 -10.79907227 Z " fill="#000000" transform="translate(247.08447265625,90.799072265625)"/>
<path d="M0 0 C4.21433217 2.52053215 7.63968936 5.3888109 11.10514832 8.85118103 C11.58185024 9.32476297 12.05855217 9.79834492 12.5496996 10.28627783 C14.13189254 11.86054909 15.70690574 13.44180471 17.28198242 15.02319336 C18.42042924 16.15892777 19.55930059 17.29423678 20.69856262 18.42915344 C23.78150804 21.50300347 26.85812033 24.58311939 29.93334365 27.66469264 C33.15604048 30.89246298 36.38362554 34.11533944 39.61042786 37.33900452 C45.02668449 42.75162597 50.43871815 48.16844307 55.84838867 53.58764648 C62.09991006 59.85005704 68.35861114 66.10522274 74.62107962 72.35668463 C80.00238625 77.72891218 85.37978165 83.10503137 90.75393373 88.48441607 C93.96171609 91.695314 97.17082859 94.90485116 100.38347435 98.11088371 C103.40281075 101.12443812 106.41720359 104.14285213 109.4278698 107.16506767 C110.53269915 108.27253879 111.63922893 109.37831657 112.7475853 110.48225784 C114.26166982 111.9908666 115.76944286 113.50551881 117.27580261 115.02183533 C118.12066821 115.86745498 118.96553381 116.71307463 119.8360014 117.58431911 C123.11085129 121.24004804 125.02507637 123.5706471 124.9375 128.5625 C123.90367244 132.35320104 123.19319107 133.75613601 120 136 C116.5763949 137.09263993 114.87693372 137.44027994 111.63048172 135.81034184 C108.71165599 133.8015568 106.35510632 131.60389714 103.84979248 129.09703064 C103.35619964 128.60585221 102.8626068 128.11467379 102.3540566 127.60861117 C100.70879573 125.96896582 99.07075346 124.32229819 97.43261719 122.67553711 C96.25167302 121.49566633 95.07029592 120.31622874 93.88851929 119.13719177 C90.68591064 115.9394243 87.4895768 112.73545189 84.29447079 109.53019023 C80.95100569 106.17793682 77.60226482 102.83096133 74.25421143 99.48329163 C68.63545912 93.86360329 63.02059097 88.24005783 57.40820312 82.61401367 C50.91369583 76.10376243 44.41395808 69.59877122 37.91120791 63.09675401 C31.65904156 56.84519727 25.40973388 50.59079151 19.16202545 44.33477974 C16.50094046 41.67015875 13.83900303 39.00639362 11.17641449 36.34327507 C8.04518214 33.21104065 4.91650397 30.076277 1.789814 26.93950844 C0.63973353 25.7864994 -0.51120211 24.63434268 -1.66303635 23.48308563 C-3.23025903 21.91635129 -4.79438719 20.34659307 -6.35772705 18.77598572 C-7.23523243 17.89680449 -8.11273781 17.01762327 -9.01683426 16.11180019 C-11.43029331 13.54179649 -11.95743507 12.65266224 -12.1875 9.125 C-12.00235491 6.03924846 -11.77840309 4.48976433 -10 2 C-6.7677285 -0.30876536 -3.89035463 -0.46684256 0 0 Z " fill="#000000" transform="translate(240,333)"/>
<path d="M0 0 C7.19690081 5.14452082 13.27863703 12.10375102 19.54077148 18.33203125 C20.68300994 19.46471179 21.82541471 20.59722462 22.9679718 21.72958374 C26.68952882 25.42002244 30.40577283 29.11578456 34.12109375 32.8125 C34.75492517 33.4430341 35.38875659 34.07356819 36.04179502 34.72320938 C42.0237564 40.67443785 48.00369471 46.6276922 53.97880459 52.58580017 C61.60318262 60.1882196 69.23748089 67.78036881 76.88547462 75.35903263 C82.27527502 80.70162835 87.65356835 86.05563644 93.02345139 91.41825008 C96.22692762 94.61677154 99.43526307 97.81003696 102.65606499 100.99111938 C105.68076923 103.97899939 108.69098178 106.9807467 111.69067192 109.99373245 C112.79283329 111.09583983 113.90013764 112.19283175 115.01291275 113.28422165 C116.53281244 114.77645929 118.03300002 116.28612725 119.5297699 117.80151367 C120.37388144 118.64139328 121.21799299 119.48127289 122.08768368 120.34660339 C124.44973425 123.62401985 124.82507581 125.99602585 125 130 C123.78392788 132.88017082 122.69696456 134.45238499 120.25 136.375 C116.79964521 137.33343189 114.27555131 137.37090169 111 136 C103.32573861 130.01031258 96.5829207 122.73201869 89.70703125 115.85229492 C88.61541496 114.76367891 87.52359682 113.67526527 86.43159485 112.58703613 C83.49792315 109.66210994 80.56741739 106.73403246 77.63779449 103.80505157 C75.8047217 101.97269349 73.97093709 100.14105087 72.13690186 98.30965614 C65.73246822 91.9144372 59.33058503 85.51667817 52.93115234 79.11645508 C46.97231141 73.15701101 41.00788759 67.20319474 35.04088116 61.25192755 C29.90506531 56.12917522 24.7730999 51.00258719 19.64413166 45.87297899 C16.58592178 42.81451422 13.52618084 39.75762072 10.46255493 36.70458031 C7.58855334 33.84024222 4.71936857 30.97116616 1.85384178 28.09835052 C0.80181071 27.04527217 -0.25193285 25.99390141 -1.30750084 24.94436836 C-2.74721546 23.51235446 -4.180185 22.07356868 -5.61279297 20.63444519 C-6.41651337 19.83126956 -7.22023376 19.02809393 -8.04830933 18.20057964 C-10.76275138 15.1399789 -11.90993856 13.08073733 -12.25 9 C-12.00129924 6.01559083 -11.7283155 4.4196417 -10 2 C-6.74404505 -0.32568211 -3.90762208 -0.67631921 0 0 Z " fill="#000000" transform="translate(345,228)"/>
<path d="M0 0 C5.86471653 3.27215711 10.30505672 8.01598546 15.01171875 12.74609375 C15.8617598 13.59422134 16.71180084 14.44234894 17.58760071 15.31617737 C19.37767318 17.10489263 21.16523757 18.89612096 22.95043945 20.68969727 C25.68154577 23.4315224 28.4231665 26.16250587 31.16601562 28.89257812 C32.90689174 30.63477565 34.64714744 32.37759338 36.38671875 34.12109375 C37.20548996 34.9358165 38.02426117 35.75053925 38.86784363 36.58995056 C39.62906021 37.35747147 40.39027679 38.12499237 41.17456055 38.91577148 C41.84263229 39.58543442 42.51070404 40.25509735 43.19902039 40.9450531 C45.97090202 44.10781492 47.8262231 46.80838695 48.4375 51 C47.8943967 54.72413693 46.59513183 56.32854076 44 59 C41.08225221 60.45887389 39.25271895 60.36823233 36 60 C33.42513068 58.61710425 31.0945657 57.04499018 29 55 C29 54.34 29 53.68 29 53 C28.34 53 27.68 53 27 53 C27 52.34 27 51.68 27 51 C26.01 50.67 25.02 50.34 24 50 C24 49.34 24 48.68 24 48 C23.01 47.67 22.02 47.34 21 47 C21 46.34 21 45.68 21 45 C20.34 45 19.68 45 19 45 C17.69091797 43.66748047 17.69091797 43.66748047 16.1171875 41.7421875 C13.00619397 38.08285918 9.72842093 34.63886478 6.3203125 31.2578125 C5.81836365 30.75916687 5.31641479 30.26052124 4.79925537 29.74676514 C3.24312275 28.20418821 1.6844878 26.66418448 0.125 25.125 C-1.95860255 23.06798047 -4.03886023 21.00766016 -6.1171875 18.9453125 C-7.03097168 18.04312988 -7.94475586 17.14094727 -8.88623047 16.21142578 C-11.34533755 13.63870784 -11.92110572 12.71004856 -12.3125 9.1875 C-11.92835642 5.2692355 -10.70743683 3.78706733 -8 1 C-5.13391871 -0.43304064 -3.18699217 -0.30644155 0 0 Z " fill="#000000" transform="translate(339,327)"/>
<path d="M0 0 C7.21073194 4.17457976 13.00339889 10.70461707 18.8125 16.5625 C19.76203516 17.50489458 20.71190311 18.44695397 21.66210938 19.38867188 C22.56380859 20.29294922 23.46550781 21.19722656 24.39453125 22.12890625 C25.20768799 22.94431885 26.02084473 23.75973145 26.85864258 24.59985352 C30.11651764 28.25145194 32.02483338 30.58449745 31.9375 35.5625 C30.89631231 39.38018818 30.24875254 40.77716931 27 43 C22.51683528 44.3283451 20.73915301 44.38973523 16.5625 42.1875 C15.716875 41.465625 14.87125 40.74375 14 40 C14 39.34 14 38.68 14 38 C12.515 37.505 12.515 37.505 11 37 C11 36.34 11 35.68 11 35 C9.515 34.505 9.515 34.505 8 34 C8 33.34 8 32.68 8 32 C7.34 32 6.68 32 6 32 C4.625 30.6015625 4.625 30.6015625 3 28.625 C-0.74969468 24.19498097 -4.80903066 20.15312113 -8.9609375 16.1015625 C-11.388662 13.59942499 -11.92788073 12.64907339 -12.3125 9.1875 C-11.92835642 5.2692355 -10.70743683 3.78706733 -8 1 C-5.02536663 -0.48731668 -3.32721157 -0.4313052 0 0 Z " fill="#000000" transform="translate(432,420)"/>
</svg>
